<svg width="343" height="259" viewBox="0 0 343 259" fill="none" xmlns="http://www.w3.org/2000/svg">
<rect x="11" width="321" height="209" rx="20" fill="#F8F8F8"/>
<circle cx="288" cy="45" r="10" fill="#FFBC5C"/>
<circle cx="274" cy="45" r="10" fill="#FF5F52"/>
<circle cx="288" cy="45" r="10" fill="#FFBB5B" fill-opacity="0.38"/>
<line x1="44" y1="103.5" x2="298" y2="103.5" stroke="black" stroke-opacity="0.1"/>
<line x1="161" y1="179.5" x2="226" y2="179.5" stroke="black" stroke-opacity="0.1"/>
<path d="M47.447 44.583C48.239 44.583 48.896 44.787 49.418 45.195C49.94 45.603 50.285 46.158 50.453 46.86H49.121C48.983 46.518 48.767 46.248 48.473 46.05C48.185 45.852 47.837 45.753 47.429 45.753C47.093 45.753 46.79 45.837 46.52 46.005C46.25 46.173 46.04 46.413 45.89 46.725C45.74 47.037 45.665 47.403 45.665 47.823C45.665 48.237 45.74 48.6 45.89 48.912C46.04 49.224 46.25 49.464 46.52 49.632C46.79 49.8 47.093 49.884 47.429 49.884C47.837 49.884 48.185 49.785 48.473 49.587C48.767 49.389 48.983 49.119 49.121 48.777H50.453C50.285 49.479 49.94 50.034 49.418 50.442C48.896 50.85 48.239 51.054 47.447 51.054C46.841 51.054 46.304 50.919 45.836 50.649C45.374 50.373 45.014 49.989 44.756 49.497C44.504 49.005 44.378 48.447 44.378 47.823C44.378 47.193 44.504 46.632 44.756 46.14C45.014 45.648 45.374 45.267 45.836 44.997C46.298 44.721 46.835 44.583 47.447 44.583ZM57.0751 49.722H54.5281L54.0781 51H52.7371L55.0771 44.718H56.5261L58.8571 51H57.5161L57.0751 49.722ZM56.7331 48.759L55.7971 46.077L54.8611 48.759H56.7331ZM64.654 51L63.169 48.525H62.611V51H61.342V44.646H63.763C64.501 44.646 65.062 44.826 65.446 45.186C65.836 45.546 66.031 46.02 66.031 46.608C66.031 47.088 65.896 47.49 65.626 47.814C65.362 48.138 64.978 48.354 64.474 48.462L66.058 51H64.654ZM62.611 47.652H63.655C64.381 47.652 64.744 47.331 64.744 46.689C64.744 46.383 64.654 46.146 64.474 45.978C64.3 45.804 64.027 45.717 63.655 45.717H62.611V47.652ZM74.2769 47.814C74.2769 48.444 74.1449 48.999 73.8809 49.479C73.6169 49.959 73.2329 50.334 72.7289 50.604C72.2309 50.868 71.6369 51 70.9469 51H68.6879V44.646H70.9469C71.6369 44.646 72.2309 44.778 72.7289 45.042C73.2329 45.3 73.6169 45.669 73.8809 46.149C74.1449 46.623 74.2769 47.178 74.2769 47.814ZM70.8389 49.866C71.5229 49.866 72.0509 49.686 72.4229 49.326C72.8009 48.966 72.9899 48.462 72.9899 47.814C72.9899 47.16 72.8009 46.653 72.4229 46.293C72.0509 45.933 71.5229 45.753 70.8389 45.753H69.9569V49.866H70.8389ZM86.1689 51H84.8999L82.0559 46.68V51H80.7869V44.646H82.0559L84.8999 49.002V44.646H86.1689V51ZM90.3412 44.646V48.372C90.3412 48.87 90.4492 49.245 90.6652 49.497C90.8872 49.743 91.2052 49.866 91.6192 49.866C92.0272 49.866 92.3392 49.743 92.5552 49.497C92.7772 49.245 92.8882 48.87 92.8882 48.372V44.646H94.1482V48.372C94.1482 48.96 94.0372 49.458 93.8152 49.866C93.5992 50.268 93.2962 50.568 92.9062 50.766C92.5222 50.964 92.0842 51.063 91.5922 51.063C90.8302 51.063 90.2212 50.835 89.7652 50.379C89.3092 49.923 89.0812 49.254 89.0812 48.372V44.646H90.3412ZM103.91 44.718V51H102.65V46.617L101.039 51H99.9408L98.3298 46.635V51H97.0608V44.718H98.5998L100.508 49.443L102.38 44.718H103.91ZM110.405 47.724C110.789 47.802 111.095 47.985 111.323 48.273C111.557 48.555 111.674 48.888 111.674 49.272C111.674 49.806 111.494 50.229 111.134 50.541C110.78 50.847 110.264 51 109.586 51H106.859V44.646H109.532C110.174 44.646 110.666 44.787 111.008 45.069C111.356 45.351 111.53 45.747 111.53 46.257C111.53 46.653 111.425 46.977 111.215 47.229C111.011 47.481 110.741 47.646 110.405 47.724ZM108.128 47.31H109.271C109.589 47.31 109.829 47.241 109.991 47.103C110.159 46.959 110.243 46.755 110.243 46.491C110.243 46.227 110.162 46.023 110 45.879C109.838 45.735 109.589 45.663 109.253 45.663H108.128V47.31ZM109.334 49.965C109.67 49.965 109.928 49.893 110.108 49.749C110.288 49.599 110.378 49.383 110.378 49.101C110.378 48.819 110.285 48.603 110.099 48.453C109.919 48.297 109.661 48.219 109.325 48.219H108.128V49.965H109.334ZM115.632 45.654V47.301H117.882V48.273H115.632V49.983H118.152V51H114.363V44.646H118.152V45.654H115.632ZM124.203 51L122.718 48.525H122.16V51H120.891V44.646H123.312C124.05 44.646 124.611 44.826 124.995 45.186C125.385 45.546 125.58 46.02 125.58 46.608C125.58 47.088 125.445 47.49 125.175 47.814C124.911 48.138 124.527 48.354 124.023 48.462L125.607 51H124.203ZM122.16 47.652H123.204C123.93 47.652 124.293 47.331 124.293 46.689C124.293 46.383 124.203 46.146 124.023 45.978C123.849 45.804 123.576 45.717 123.204 45.717H122.16V47.652Z" fill="black" fill-opacity="0.28"/>
<path d="M168.425 138.718V145H167.165V140.617L165.554 145H164.456L162.845 140.635V145H161.576V138.718H163.115L165.023 143.443L166.895 138.718H168.425ZM178.223 138.718V145H176.963V140.617L175.352 145H174.254L172.643 140.635V145H171.374V138.718H172.913L174.821 143.443L176.693 138.718H178.223ZM184.169 136.477L181.73 146.629H180.506L182.945 136.477H184.169ZM191.538 138.646L189.387 142.777V145H188.109V142.777L185.949 138.646H187.407L188.757 141.427L190.107 138.646H191.538ZM199.139 138.646L196.988 142.777V145H195.71V142.777L193.55 138.646H195.008L196.358 141.427L197.708 138.646H199.139Z" fill="black" fill-opacity="0.28"/>
<line x1="252" y1="179.5" x2="298" y2="179.5" stroke="black" stroke-opacity="0.1"/>
<path d="M255.447 138.583C256.239 138.583 256.896 138.787 257.418 139.195C257.94 139.603 258.285 140.158 258.453 140.86H257.121C256.983 140.518 256.767 140.248 256.473 140.05C256.185 139.852 255.837 139.753 255.429 139.753C255.093 139.753 254.79 139.837 254.52 140.005C254.25 140.173 254.04 140.413 253.89 140.725C253.74 141.037 253.665 141.403 253.665 141.823C253.665 142.237 253.74 142.6 253.89 142.912C254.04 143.224 254.25 143.464 254.52 143.632C254.79 143.8 255.093 143.884 255.429 143.884C255.837 143.884 256.185 143.785 256.473 143.587C256.767 143.389 256.983 143.119 257.121 142.777H258.453C258.285 143.479 257.94 144.034 257.418 144.442C256.896 144.85 256.239 145.054 255.447 145.054C254.841 145.054 254.304 144.919 253.836 144.649C253.374 144.373 253.014 143.989 252.756 143.497C252.504 143.005 252.378 142.447 252.378 141.823C252.378 141.193 252.504 140.632 252.756 140.14C253.014 139.648 253.374 139.267 253.836 138.997C254.298 138.721 254.835 138.583 255.447 138.583ZM262.096 138.646L263.797 143.677L265.507 138.646H266.866L264.616 145H262.987L260.737 138.646H262.096ZM272.222 138.583C273.014 138.583 273.671 138.787 274.193 139.195C274.715 139.603 275.06 140.158 275.228 140.86H273.896C273.758 140.518 273.542 140.248 273.248 140.05C272.96 139.852 272.612 139.753 272.204 139.753C271.868 139.753 271.565 139.837 271.295 140.005C271.025 140.173 270.815 140.413 270.665 140.725C270.515 141.037 270.44 141.403 270.44 141.823C270.44 142.237 270.515 142.6 270.665 142.912C270.815 143.224 271.025 143.464 271.295 143.632C271.565 143.8 271.868 143.884 272.204 143.884C272.612 143.884 272.96 143.785 273.248 143.587C273.542 143.389 273.758 143.119 273.896 142.777H275.228C275.06 143.479 274.715 144.034 274.193 144.442C273.671 144.85 273.014 145.054 272.222 145.054C271.616 145.054 271.079 144.919 270.611 144.649C270.149 144.373 269.789 143.989 269.531 143.497C269.279 143.005 269.153 142.447 269.153 141.823C269.153 141.193 269.279 140.632 269.531 140.14C269.789 139.648 270.149 139.267 270.611 138.997C271.073 138.721 271.61 138.583 272.222 138.583Z" fill="black" fill-opacity="0.28"/>
</svg>
