<svg width="50" height="50" viewBox="0 0 50 50" fill="none" xmlns="http://www.w3.org/2000/svg">
<path d="M25 0C11.2152 0 0 11.2152 0 25C0 38.7848 11.2152 50 25 50C38.7848 50 50 38.7848 50 25C50 11.2152 38.7848 0 25 0ZM25 47.8261C12.413 47.8261 2.17391 37.587 2.17391 25C2.17391 12.413 12.413 2.17391 25 2.17391C37.587 2.17391 47.8261 12.413 47.8261 25C47.8261 37.587 37.587 47.8261 25 47.8261Z" fill="white"/>
<path d="M25 47.8261C12.413 47.8261 2.17391 37.587 2.17391 25C2.17391 12.413 12.413 2.17391 25 2.17391C37.587 2.17391 47.8261 12.413 47.8261 25C47.8261 37.587 37.587 47.8261 25 47.8261Z" fill="white"/>
<path d="M35.5076 30.712C35.0597 30.3109 34.3717 30.35 33.9728 30.7967C31.7054 33.3304 28.4358 34.7826 25 34.7826C21.5652 34.7826 18.2945 33.3304 16.0271 30.7967C15.626 30.35 14.9402 30.3109 14.4923 30.712C14.0445 31.112 14.0076 31.7989 14.4076 32.2467C17.0869 35.2402 20.9478 36.9565 25 36.9565C29.0532 36.9565 32.9141 35.2391 35.5923 32.2467C35.9923 31.7989 35.9543 31.112 35.5076 30.712Z" fill="#89D895"/>
<path d="M33.6956 17.3913C30.6989 17.3913 28.2609 19.8293 28.2609 22.8261C28.2609 23.4261 28.7478 23.913 29.3478 23.913C29.9478 23.913 30.4348 23.4261 30.4348 22.8261C30.4348 21.0283 31.8978 19.5652 33.6956 19.5652C35.4935 19.5652 36.9565 21.0283 36.9565 22.8261C36.9565 23.4261 37.4435 23.913 38.0435 23.913C38.6435 23.913 39.1304 23.4261 39.1304 22.8261C39.1304 19.8293 36.6924 17.3913 33.6956 17.3913Z" fill="#89D895"/>
<path d="M19.5652 22.8261C19.5652 23.4261 20.0522 23.913 20.6522 23.913C21.2522 23.913 21.7391 23.4261 21.7391 22.8261C21.7391 19.8293 19.3011 17.3913 16.3044 17.3913C13.3076 17.3913 10.8696 19.8293 10.8696 22.8261C10.8696 23.4261 11.3565 23.913 11.9565 23.913C12.5565 23.913 13.0435 23.4261 13.0435 22.8261C13.0435 21.0283 14.5065 19.5652 16.3044 19.5652C18.1022 19.5652 19.5652 21.0283 19.5652 22.8261Z" fill="#89D895"/>
</svg>
